<svg version="1.1" xmlns="http://www.w3.org/2000/svg" width="100" height="100"><rect x="0" y="0" width="100" height="100" fill="white"/><rect x="10.810810810811" y="10.810810810811" width="18.918918918919" height="2.7027027027027" fill="black"/><rect x="37.837837837838" y="10.810810810811" width="2.7027027027027" height="2.7027027027027" fill="black"/><rect x="45.945945945946" y="10.810810810811" width="8.1081081081081" height="2.7027027027027" fill="black"/><rect x="59.459459459459" y="10.810810810811" width="5.4054054054054" height="2.7027027027027" fill="black"/><rect x="70.27027027027" y="10.810810810811" width="18.918918918919" height="2.7027027027027" fill="black"/><rect x="10.810810810811" y="13.513513513514" width="2.7027027027027" height="2.7027027027027" fill="black"/><rect x="27.027027027027" y="13.513513513514" width="2.7027027027027" height="2.7027027027027" fill="black"/><rect x="32.432432432432" y="13.513513513514" width="8.1081081081081" height="2.7027027027027" fill="black"/><rect x="51.351351351351" y="13.513513513514" width="10.810810810811" height="2.7027027027027" fill="black"/><rect x="70.27027027027" y="13.513513513514" width="2.7027027027027" height="2.7027027027027" fill="black"/><rect x="86.486486486486" y="13.513513513514" width="2.7027027027027" height="2.7027027027027" fill="black"/><rect x="10.810810810811" y="16.216216216216" width="2.7027027027027" height="2.7027027027027" fill="black"/><rect x="16.216216216216" y="16.216216216216" width="8.1081081081081" height="2.7027027027027" fill="black"/><rect x="27.027027027027" y="16.216216216216" width="2.7027027027027" height="2.7027027027027" fill="black"/><rect x="32.432432432432" y="16.216216216216" width="2.7027027027027" height="2.7027027027027" fill="black"/><rect x="48.648648648649" y="16.216216216216" width="5.4054054054054" height="2.7027027027027" fill="black"/><rect x="56.756756756757" y="16.216216216216" width="2.7027027027027" height="2.7027027027027" fill="black"/><rect x="64.864864864865" y="16.216216216216" width="2.7027027027027" height="2.7027027027027" fill="black"/><rect x="70.27027027027" y="16.216216216216" width="2.7027027027027" height="2.7027027027027" fill="black"/><rect x="75.675675675676" y="16.216216216216" width="8.1081081081081" height="2.7027027027027" fill="black"/><rect x="86.486486486486" y="16.216216216216" width="2.7027027027027" height="2.7027027027027" fill="black"/><rect x="10.810810810811" y="18.918918918919" width="2.7027027027027" height="2.7027027027027" fill="black"/><rect x="16.216216216216" y="18.918918918919" width="8.1081081081081" height="2.7027027027027" fill="black"/><rect x="27.027027027027" y="18.918918918919" width="2.7027027027027" height="2.7027027027027" fill="black"/><rect x="35.135135135135" y="18.918918918919" width="2.7027027027027" height="2.7027027027027" fill="black"/><rect x="43.243243243243" y="18.918918918919" width="2.7027027027027" height="2.7027027027027" fill="black"/><rect x="48.648648648649" y="18.918918918919" width="5.4054054054054" height="2.7027027027027" fill="black"/><rect x="59.459459459459" y="18.918918918919" width="8.1081081081081" height="2.7027027027027" fill="black"/><rect x="70.27027027027" y="18.918918918919" width="2.7027027027027" height="2.7027027027027" fill="black"/><rect x="75.675675675676" y="18.918918918919" width="8.1081081081081" height="2.7027027027027" fill="black"/><rect x="86.486486486486" y="18.918918918919" width="2.7027027027027" height="2.7027027027027" fill="black"/><rect x="10.810810810811" y="21.621621621622" width="2.7027027027027" height="2.7027027027027" fill="black"/><rect x="16.216216216216" y="21.621621621622" width="8.1081081081081" height="2.7027027027027" fill="black"/><rect x="27.027027027027" y="21.621621621622" width="2.7027027027027" height="2.7027027027027" fill="black"/><rect x="32.432432432432" y="21.621621621622" width="8.1081081081081" height="2.7027027027027" fill="black"/><rect x="43.243243243243" y="21.621621621622" width="18.918918918919" height="2.7027027027027" fill="black"/><rect x="70.27027027027" y="21.621621621622" width="2.7027027027027" height="2.7027027027027" fill="black"/><rect x="75.675675675676" y="21.621621621622" width="8.1081081081081" height="2.7027027027027" fill="black"/><rect x="86.486486486486" y="21.621621621622" width="2.7027027027027" height="2.7027027027027" fill="black"/><rect x="10.810810810811" y="24.324324324324" width="2.7027027027027" height="2.7027027027027" fill="black"/><rect x="27.027027027027" y="24.324324324324" width="2.7027027027027" height="2.7027027027027" fill="black"/><rect x="32.432432432432" y="24.324324324324" width="2.7027027027027" height="2.7027027027027" fill="black"/><rect x="37.837837837838" y="24.324324324324" width="2.7027027027027" height="2.7027027027027" fill="black"/><rect x="43.243243243243" y="24.324324324324" width="2.7027027027027" height="2.7027027027027" fill="black"/><rect x="48.648648648649" y="24.324324324324" width="18.918918918919" height="2.7027027027027" fill="black"/><rect x="70.27027027027" y="24.324324324324" width="2.7027027027027" height="2.7027027027027" fill="black"/><rect x="86.486486486486" y="24.324324324324" width="2.7027027027027" height="2.7027027027027" fill="black"/><rect x="10.810810810811" y="27.027027027027" width="18.918918918919" height="2.7027027027027" fill="black"/><rect x="32.432432432432" y="27.027027027027" width="2.7027027027027" height="2.7027027027027" fill="black"/><rect x="37.837837837838" y="27.027027027027" width="2.7027027027027" height="2.7027027027027" fill="black"/><rect x="43.243243243243" y="27.027027027027" width="2.7027027027027" height="2.7027027027027" fill="black"/><rect x="48.648648648649" y="27.027027027027" width="2.7027027027027" height="2.7027027027027" fill="black"/><rect x="54.054054054054" y="27.027027027027" width="2.7027027027027" height="2.7027027027027" fill="black"/><rect x="59.459459459459" y="27.027027027027" width="2.7027027027027" height="2.7027027027027" fill="black"/><rect x="64.864864864865" y="27.027027027027" width="2.7027027027027" height="2.7027027027027" fill="black"/><rect x="70.27027027027" y="27.027027027027" width="18.918918918919" height="2.7027027027027" fill="black"/><rect x="32.432432432432" y="29.72972972973" width="2.7027027027027" height="2.7027027027027" fill="black"/><rect x="37.837837837838" y="29.72972972973" width="5.4054054054054" height="2.7027027027027" fill="black"/><rect x="48.648648648649" y="29.72972972973" width="10.810810810811" height="2.7027027027027" fill="black"/><rect x="62.162162162162" y="29.72972972973" width="5.4054054054054" height="2.7027027027027" fill="black"/><rect x="10.810810810811" y="32.432432432432" width="5.4054054054054" height="2.7027027027027" fill="black"/><rect x="18.918918918919" y="32.432432432432" width="2.7027027027027" height="2.7027027027027" fill="black"/><rect x="27.027027027027" y="32.432432432432" width="5.4054054054054" height="2.7027027027027" fill="black"/><rect x="40.540540540541" y="32.432432432432" width="16.216216216216" height="2.7027027027027" fill="black"/><rect x="62.162162162162" y="32.432432432432" width="2.7027027027027" height="2.7027027027027" fill="black"/><rect x="70.27027027027" y="32.432432432432" width="8.1081081081081" height="2.7027027027027" fill="black"/><rect x="81.081081081081" y="32.432432432432" width="5.4054054054054" height="2.7027027027027" fill="black"/><rect x="10.810810810811" y="35.135135135135" width="13.513513513514" height="2.7027027027027" fill="black"/><rect x="29.72972972973" y="35.135135135135" width="8.1081081081081" height="2.7027027027027" fill="black"/><rect x="40.540540540541" y="35.135135135135" width="8.1081081081081" height="2.7027027027027" fill="black"/><rect x="54.054054054054" y="35.135135135135" width="5.4054054054054" height="2.7027027027027" fill="black"/><rect x="64.864864864865" y="35.135135135135" width="8.1081081081081" height="2.7027027027027" fill="black"/><rect x="78.378378378378" y="35.135135135135" width="2.7027027027027" height="2.7027027027027" fill="black"/><rect x="86.486486486486" y="35.135135135135" width="2.7027027027027" height="2.7027027027027" fill="black"/><rect x="13.513513513514" y="37.837837837838" width="2.7027027027027" height="2.7027027027027" fill="black"/><rect x="21.621621621622" y="37.837837837838" width="10.810810810811" height="2.7027027027027" fill="black"/><rect x="40.540540540541" y="37.837837837838" width="10.810810810811" height="2.7027027027027" fill="black"/><rect x="62.162162162162" y="37.837837837838" width="2.7027027027027" height="2.7027027027027" fill="black"/><rect x="70.27027027027" y="37.837837837838" width="2.7027027027027" height="2.7027027027027" fill="black"/><rect x="75.675675675676" y="37.837837837838" width="10.810810810811" height="2.7027027027027" fill="black"/><rect x="13.513513513514" y="40.540540540541" width="2.7027027027027" height="2.7027027027027" fill="black"/><rect x="18.918918918919" y="40.540540540541" width="2.7027027027027" height="2.7027027027027" fill="black"/><rect x="29.72972972973" y="40.540540540541" width="2.7027027027027" height="2.7027027027027" fill="black"/><rect x="35.135135135135" y="40.540540540541" width="13.513513513514" height="2.7027027027027" fill="black"/><rect x="51.351351351351" y="40.540540540541" width="5.4054054054054" height="2.7027027027027" fill="black"/><rect x="67.567567567568" y="40.540540540541" width="2.7027027027027" height="2.7027027027027" fill="black"/><rect x="72.972972972973" y="40.540540540541" width="13.513513513514" height="2.7027027027027" fill="black"/><rect x="16.216216216216" y="43.243243243243" width="2.7027027027027" height="2.7027027027027" fill="black"/><rect x="21.621621621622" y="43.243243243243" width="10.810810810811" height="2.7027027027027" fill="black"/><rect x="37.837837837838" y="43.243243243243" width="5.4054054054054" height="2.7027027027027" fill="black"/><rect x="45.945945945946" y="43.243243243243" width="2.7027027027027" height="2.7027027027027" fill="black"/><rect x="56.756756756757" y="43.243243243243" width="16.216216216216" height="2.7027027027027" fill="black"/><rect x="78.378378378378" y="43.243243243243" width="2.7027027027027" height="2.7027027027027" fill="black"/><rect x="83.783783783784" y="43.243243243243" width="5.4054054054054" height="2.7027027027027" fill="black"/><rect x="16.216216216216" y="45.945945945946" width="2.7027027027027" height="2.7027027027027" fill="black"/><rect x="21.621621621622" y="45.945945945946" width="5.4054054054054" height="2.7027027027027" fill="black"/><rect x="29.72972972973" y="45.945945945946" width="8.1081081081081" height="2.7027027027027" fill="black"/><rect x="40.540540540541" y="45.945945945946" width="2.7027027027027" height="2.7027027027027" fill="black"/><rect x="48.648648648649" y="45.945945945946" width="2.7027027027027" height="2.7027027027027" fill="black"/><rect x="62.162162162162" y="45.945945945946" width="8.1081081081081" height="2.7027027027027" fill="black"/><rect x="81.081081081081" y="45.945945945946" width="2.7027027027027" height="2.7027027027027" fill="black"/><rect x="10.810810810811" y="48.648648648649" width="5.4054054054054" height="2.7027027027027" fill="black"/><rect x="21.621621621622" y="48.648648648649" width="10.810810810811" height="2.7027027027027" fill="black"/><rect x="37.837837837838" y="48.648648648649" width="5.4054054054054" height="2.7027027027027" fill="black"/><rect x="48.648648648649" y="48.648648648649" width="2.7027027027027" height="2.7027027027027" fill="black"/><rect x="54.054054054054" y="48.648648648649" width="2.7027027027027" height="2.7027027027027" fill="black"/><rect x="67.567567567568" y="48.648648648649" width="2.7027027027027" height="2.7027027027027" fill="black"/><rect x="75.675675675676" y="48.648648648649" width="2.7027027027027" height="2.7027027027027" fill="black"/><rect x="81.081081081081" y="48.648648648649" width="8.1081081081081" height="2.7027027027027" fill="black"/><rect x="13.513513513514" y="51.351351351351" width="8.1081081081081" height="2.7027027027027" fill="black"/><rect x="24.324324324324" y="51.351351351351" width="2.7027027027027" height="2.7027027027027" fill="black"/><rect x="32.432432432432" y="51.351351351351" width="2.7027027027027" height="2.7027027027027" fill="black"/><rect x="40.540540540541" y="51.351351351351" width="2.7027027027027" height="2.7027027027027" fill="black"/><rect x="45.945945945946" y="51.351351351351" width="2.7027027027027" height="2.7027027027027" fill="black"/><rect x="56.756756756757" y="51.351351351351" width="5.4054054054054" height="2.7027027027027" fill="black"/><rect x="70.27027027027" y="51.351351351351" width="5.4054054054054" height="2.7027027027027" fill="black"/><rect x="78.378378378378" y="51.351351351351" width="2.7027027027027" height="2.7027027027027" fill="black"/><rect x="83.783783783784" y="51.351351351351" width="2.7027027027027" height="2.7027027027027" fill="black"/><rect x="10.810810810811" y="54.054054054054" width="5.4054054054054" height="2.7027027027027" fill="black"/><rect x="18.918918918919" y="54.054054054054" width="2.7027027027027" height="2.7027027027027" fill="black"/><rect x="27.027027027027" y="54.054054054054" width="2.7027027027027" height="2.7027027027027" fill="black"/><rect x="35.135135135135" y="54.054054054054" width="5.4054054054054" height="2.7027027027027" fill="black"/><rect x="43.243243243243" y="54.054054054054" width="2.7027027027027" height="2.7027027027027" fill="black"/><rect x="54.054054054054" y="54.054054054054" width="5.4054054054054" height="2.7027027027027" fill="black"/><rect x="62.162162162162" y="54.054054054054" width="2.7027027027027" height="2.7027027027027" fill="black"/><rect x="67.567567567568" y="54.054054054054" width="2.7027027027027" height="2.7027027027027" fill="black"/><rect x="78.378378378378" y="54.054054054054" width="2.7027027027027" height="2.7027027027027" fill="black"/><rect x="83.783783783784" y="54.054054054054" width="2.7027027027027" height="2.7027027027027" fill="black"/><rect x="10.810810810811" y="56.756756756757" width="16.216216216216" height="2.7027027027027" fill="black"/><rect x="29.72972972973" y="56.756756756757" width="5.4054054054054" height="2.7027027027027" fill="black"/><rect x="43.243243243243" y="56.756756756757" width="8.1081081081081" height="2.7027027027027" fill="black"/><rect x="54.054054054054" y="56.756756756757" width="2.7027027027027" height="2.7027027027027" fill="black"/><rect x="59.459459459459" y="56.756756756757" width="2.7027027027027" height="2.7027027027027" fill="black"/><rect x="70.27027027027" y="56.756756756757" width="5.4054054054054" height="2.7027027027027" fill="black"/><rect x="86.486486486486" y="56.756756756757" width="2.7027027027027" height="2.7027027027027" fill="black"/><rect x="13.513513513514" y="59.459459459459" width="8.1081081081081" height="2.7027027027027" fill="black"/><rect x="27.027027027027" y="59.459459459459" width="18.918918918919" height="2.7027027027027" fill="black"/><rect x="56.756756756757" y="59.459459459459" width="2.7027027027027" height="2.7027027027027" fill="black"/><rect x="64.864864864865" y="59.459459459459" width="2.7027027027027" height="2.7027027027027" fill="black"/><rect x="70.27027027027" y="59.459459459459" width="5.4054054054054" height="2.7027027027027" fill="black"/><rect x="78.378378378378" y="59.459459459459" width="2.7027027027027" height="2.7027027027027" fill="black"/><rect x="83.783783783784" y="59.459459459459" width="5.4054054054054" height="2.7027027027027" fill="black"/><rect x="10.810810810811" y="62.162162162162" width="8.1081081081081" height="2.7027027027027" fill="black"/><rect x="21.621621621622" y="62.162162162162" width="5.4054054054054" height="2.7027027027027" fill="black"/><rect x="32.432432432432" y="62.162162162162" width="2.7027027027027" height="2.7027027027027" fill="black"/><rect x="37.837837837838" y="62.162162162162" width="2.7027027027027" height="2.7027027027027" fill="black"/><rect x="43.243243243243" y="62.162162162162" width="2.7027027027027" height="2.7027027027027" fill="black"/><rect x="48.648648648649" y="62.162162162162" width="5.4054054054054" height="2.7027027027027" fill="black"/><rect x="56.756756756757" y="62.162162162162" width="10.810810810811" height="2.7027027027027" fill="black"/><rect x="72.972972972973" y="62.162162162162" width="2.7027027027027" height="2.7027027027027" fill="black"/><rect x="83.783783783784" y="62.162162162162" width="5.4054054054054" height="2.7027027027027" fill="black"/><rect x="13.513513513514" y="64.864864864865" width="5.4054054054054" height="2.7027027027027" fill="black"/><rect x="24.324324324324" y="64.864864864865" width="10.810810810811" height="2.7027027027027" fill="black"/><rect x="43.243243243243" y="64.864864864865" width="8.1081081081081" height="2.7027027027027" fill="black"/><rect x="54.054054054054" y="64.864864864865" width="2.7027027027027" height="2.7027027027027" fill="black"/><rect x="64.864864864865" y="64.864864864865" width="13.513513513514" height="2.7027027027027" fill="black"/><rect x="81.081081081081" y="64.864864864865" width="2.7027027027027" height="2.7027027027027" fill="black"/><rect x="32.432432432432" y="67.567567567568" width="10.810810810811" height="2.7027027027027" fill="black"/><rect x="45.945945945946" y="67.567567567568" width="5.4054054054054" height="2.7027027027027" fill="black"/><rect x="54.054054054054" y="67.567567567568" width="5.4054054054054" height="2.7027027027027" fill="black"/><rect x="62.162162162162" y="67.567567567568" width="5.4054054054054" height="2.7027027027027" fill="black"/><rect x="75.675675675676" y="67.567567567568" width="2.7027027027027" height="2.7027027027027" fill="black"/><rect x="81.081081081081" y="67.567567567568" width="8.1081081081081" height="2.7027027027027" fill="black"/><rect x="10.810810810811" y="70.27027027027" width="18.918918918919" height="2.7027027027027" fill="black"/><rect x="32.432432432432" y="70.27027027027" width="5.4054054054054" height="2.7027027027027" fill="black"/><rect x="43.243243243243" y="70.27027027027" width="2.7027027027027" height="2.7027027027027" fill="black"/><rect x="48.648648648649" y="70.27027027027" width="2.7027027027027" height="2.7027027027027" fill="black"/><rect x="54.054054054054" y="70.27027027027" width="2.7027027027027" height="2.7027027027027" fill="black"/><rect x="64.864864864865" y="70.27027027027" width="2.7027027027027" height="2.7027027027027" fill="black"/><rect x="70.27027027027" y="70.27027027027" width="2.7027027027027" height="2.7027027027027" fill="black"/><rect x="75.675675675676" y="70.27027027027" width="2.7027027027027" height="2.7027027027027" fill="black"/><rect x="83.783783783784" y="70.27027027027" width="2.7027027027027" height="2.7027027027027" fill="black"/><rect x="10.810810810811" y="72.972972972973" width="2.7027027027027" height="2.7027027027027" fill="black"/><rect x="27.027027027027" y="72.972972972973" width="2.7027027027027" height="2.7027027027027" fill="black"/><rect x="37.837837837838" y="72.972972972973" width="2.7027027027027" height="2.7027027027027" fill="black"/><rect x="43.243243243243" y="72.972972972973" width="5.4054054054054" height="2.7027027027027" fill="black"/><rect x="59.459459459459" y="72.972972972973" width="2.7027027027027" height="2.7027027027027" fill="black"/><rect x="64.864864864865" y="72.972972972973" width="2.7027027027027" height="2.7027027027027" fill="black"/><rect x="75.675675675676" y="72.972972972973" width="2.7027027027027" height="2.7027027027027" fill="black"/><rect x="81.081081081081" y="72.972972972973" width="2.7027027027027" height="2.7027027027027" fill="black"/><rect x="10.810810810811" y="75.675675675676" width="2.7027027027027" height="2.7027027027027" fill="black"/><rect x="16.216216216216" y="75.675675675676" width="8.1081081081081" height="2.7027027027027" fill="black"/><rect x="27.027027027027" y="75.675675675676" width="2.7027027027027" height="2.7027027027027" fill="black"/><rect x="35.135135135135" y="75.675675675676" width="2.7027027027027" height="2.7027027027027" fill="black"/><rect x="45.945945945946" y="75.675675675676" width="5.4054054054054" height="2.7027027027027" fill="black"/><rect x="54.054054054054" y="75.675675675676" width="5.4054054054054" height="2.7027027027027" fill="black"/><rect x="64.864864864865" y="75.675675675676" width="13.513513513514" height="2.7027027027027" fill="black"/><rect x="83.783783783784" y="75.675675675676" width="2.7027027027027" height="2.7027027027027" fill="black"/><rect x="10.810810810811" y="78.378378378378" width="2.7027027027027" height="2.7027027027027" fill="black"/><rect x="16.216216216216" y="78.378378378378" width="8.1081081081081" height="2.7027027027027" fill="black"/><rect x="27.027027027027" y="78.378378378378" width="2.7027027027027" height="2.7027027027027" fill="black"/><rect x="32.432432432432" y="78.378378378378" width="8.1081081081081" height="2.7027027027027" fill="black"/><rect x="45.945945945946" y="78.378378378378" width="2.7027027027027" height="2.7027027027027" fill="black"/><rect x="56.756756756757" y="78.378378378378" width="2.7027027027027" height="2.7027027027027" fill="black"/><rect x="62.162162162162" y="78.378378378378" width="5.4054054054054" height="2.7027027027027" fill="black"/><rect x="70.27027027027" y="78.378378378378" width="16.216216216216" height="2.7027027027027" fill="black"/><rect x="10.810810810811" y="81.081081081081" width="2.7027027027027" height="2.7027027027027" fill="black"/><rect x="16.216216216216" y="81.081081081081" width="8.1081081081081" height="2.7027027027027" fill="black"/><rect x="27.027027027027" y="81.081081081081" width="2.7027027027027" height="2.7027027027027" fill="black"/><rect x="37.837837837838" y="81.081081081081" width="5.4054054054054" height="2.7027027027027" fill="black"/><rect x="45.945945945946" y="81.081081081081" width="5.4054054054054" height="2.7027027027027" fill="black"/><rect x="59.459459459459" y="81.081081081081" width="10.810810810811" height="2.7027027027027" fill="black"/><rect x="75.675675675676" y="81.081081081081" width="2.7027027027027" height="2.7027027027027" fill="black"/><rect x="86.486486486486" y="81.081081081081" width="2.7027027027027" height="2.7027027027027" fill="black"/><rect x="10.810810810811" y="83.783783783784" width="2.7027027027027" height="2.7027027027027" fill="black"/><rect x="27.027027027027" y="83.783783783784" width="2.7027027027027" height="2.7027027027027" fill="black"/><rect x="32.432432432432" y="83.783783783784" width="5.4054054054054" height="2.7027027027027" fill="black"/><rect x="40.540540540541" y="83.783783783784" width="2.7027027027027" height="2.7027027027027" fill="black"/><rect x="45.945945945946" y="83.783783783784" width="5.4054054054054" height="2.7027027027027" fill="black"/><rect x="54.054054054054" y="83.783783783784" width="5.4054054054054" height="2.7027027027027" fill="black"/><rect x="62.162162162162" y="83.783783783784" width="5.4054054054054" height="2.7027027027027" fill="black"/><rect x="75.675675675676" y="83.783783783784" width="2.7027027027027" height="2.7027027027027" fill="black"/><rect x="83.783783783784" y="83.783783783784" width="2.7027027027027" height="2.7027027027027" fill="black"/><rect x="10.810810810811" y="86.486486486486" width="18.918918918919" height="2.7027027027027" fill="black"/><rect x="32.432432432432" y="86.486486486486" width="8.1081081081081" height="2.7027027027027" fill="black"/><rect x="48.648648648649" y="86.486486486486" width="5.4054054054054" height="2.7027027027027" fill="black"/><rect x="56.756756756757" y="86.486486486486" width="10.810810810811" height="2.7027027027027" fill="black"/><rect x="72.972972972973" y="86.486486486486" width="2.7027027027027" height="2.7027027027027" fill="black"/><rect x="78.378378378378" y="86.486486486486" width="2.7027027027027" height="2.7027027027027" fill="black"/><rect x="83.783783783784" y="86.486486486486" width="2.7027027027027" height="2.7027027027027" fill="black"/><rect x="10.810810810811" y="10.810810810811" width="2.7027027027027" height="18.918918918919" fill="black"/><rect x="10.810810810811" y="32.432432432432" width="2.7027027027027" height="5.4054054054054" fill="black"/><rect x="10.810810810811" y="54.054054054054" width="2.7027027027027" height="5.4054054054054" fill="black"/><rect x="10.810810810811" y="62.162162162162" width="2.7027027027027" height="2.7027027027027" fill="black"/><rect x="10.810810810811" y="70.27027027027" width="2.7027027027027" height="18.918918918919" fill="black"/><rect x="13.513513513514" y="27.027027027027" width="2.7027027027027" height="2.7027027027027" fill="black"/><rect x="13.513513513514" y="32.432432432432" width="2.7027027027027" height="10.810810810811" fill="black"/><rect x="13.513513513514" y="48.648648648649" width="2.7027027027027" height="18.918918918919" fill="black"/><rect x="16.216216216216" y="16.216216216216" width="2.7027027027027" height="8.1081081081081" fill="black"/><rect x="16.216216216216" y="27.027027027027" width="2.7027027027027" height="2.7027027027027" fill="black"/><rect x="16.216216216216" y="43.243243243243" width="2.7027027027027" height="5.4054054054054" fill="black"/><rect x="16.216216216216" y="56.756756756757" width="2.7027027027027" height="10.810810810811" fill="black"/><rect x="16.216216216216" y="75.675675675676" width="2.7027027027027" height="8.1081081081081" fill="black"/><rect x="18.918918918919" y="16.216216216216" width="2.7027027027027" height="8.1081081081081" fill="black"/><rect x="18.918918918919" y="27.027027027027" width="2.7027027027027" height="2.7027027027027" fill="black"/><rect x="18.918918918919" y="32.432432432432" width="2.7027027027027" height="5.4054054054054" fill="black"/><rect x="18.918918918919" y="51.351351351351" width="2.7027027027027" height="10.810810810811" fill="black"/><rect x="18.918918918919" y="75.675675675676" width="2.7027027027027" height="8.1081081081081" fill="black"/><rect x="21.621621621622" y="16.216216216216" width="2.7027027027027" height="8.1081081081081" fill="black"/><rect x="21.621621621622" y="27.027027027027" width="2.7027027027027" height="2.7027027027027" fill="black"/><rect x="21.621621621622" y="35.135135135135" width="2.7027027027027" height="5.4054054054054" fill="black"/><rect x="21.621621621622" y="43.243243243243" width="2.7027027027027" height="8.1081081081081" fill="black"/><rect x="21.621621621622" y="62.162162162162" width="2.7027027027027" height="2.7027027027027" fill="black"/><rect x="21.621621621622" y="75.675675675676" width="2.7027027027027" height="8.1081081081081" fill="black"/><rect x="24.324324324324" y="27.027027027027" width="2.7027027027027" height="2.7027027027027" fill="black"/><rect x="24.324324324324" y="43.243243243243" width="2.7027027027027" height="10.810810810811" fill="black"/><rect x="24.324324324324" y="62.162162162162" width="2.7027027027027" height="5.4054054054054" fill="black"/><rect x="27.027027027027" y="10.810810810811" width="2.7027027027027" height="18.918918918919" fill="black"/><rect x="27.027027027027" y="54.054054054054" width="2.7027027027027" height="2.7027027027027" fill="black"/><rect x="27.027027027027" y="70.27027027027" width="2.7027027027027" height="18.918918918919" fill="black"/><rect x="29.72972972973" y="32.432432432432" width="2.7027027027027" height="18.918918918919" fill="black"/><rect x="29.72972972973" y="56.756756756757" width="2.7027027027027" height="5.4054054054054" fill="black"/><rect x="32.432432432432" y="13.513513513514" width="2.7027027027027" height="5.4054054054054" fill="black"/><rect x="32.432432432432" y="21.621621621622" width="2.7027027027027" height="10.810810810811" fill="black"/><rect x="32.432432432432" y="56.756756756757" width="2.7027027027027" height="16.216216216216" fill="black"/><rect x="32.432432432432" y="83.783783783784" width="2.7027027027027" height="5.4054054054054" fill="black"/><rect x="35.135135135135" y="13.513513513514" width="2.7027027027027" height="2.7027027027027" fill="black"/><rect x="35.135135135135" y="18.918918918919" width="2.7027027027027" height="5.4054054054054" fill="black"/><rect x="35.135135135135" y="54.054054054054" width="2.7027027027027" height="2.7027027027027" fill="black"/><rect x="35.135135135135" y="67.567567567568" width="2.7027027027027" height="5.4054054054054" fill="black"/><rect x="35.135135135135" y="75.675675675676" width="2.7027027027027" height="5.4054054054054" fill="black"/><rect x="35.135135135135" y="83.783783783784" width="2.7027027027027" height="5.4054054054054" fill="black"/><rect x="37.837837837838" y="10.810810810811" width="2.7027027027027" height="5.4054054054054" fill="black"/><rect x="37.837837837838" y="21.621621621622" width="2.7027027027027" height="10.810810810811" fill="black"/><rect x="37.837837837838" y="40.540540540541" width="2.7027027027027" height="5.4054054054054" fill="black"/><rect x="37.837837837838" y="54.054054054054" width="2.7027027027027" height="2.7027027027027" fill="black"/><rect x="37.837837837838" y="59.459459459459" width="2.7027027027027" height="5.4054054054054" fill="black"/><rect x="37.837837837838" y="78.378378378378" width="2.7027027027027" height="5.4054054054054" fill="black"/><rect x="40.540540540541" y="29.72972972973" width="2.7027027027027" height="24.324324324324" fill="black"/><rect x="40.540540540541" y="81.081081081081" width="2.7027027027027" height="5.4054054054054" fill="black"/><rect x="43.243243243243" y="18.918918918919" width="2.7027027027027" height="10.810810810811" fill="black"/><rect x="43.243243243243" y="32.432432432432" width="2.7027027027027" height="10.810810810811" fill="black"/><rect x="43.243243243243" y="54.054054054054" width="2.7027027027027" height="13.513513513514" fill="black"/><rect x="43.243243243243" y="70.27027027027" width="2.7027027027027" height="5.4054054054054" fill="black"/><rect x="45.945945945946" y="32.432432432432" width="2.7027027027027" height="13.513513513514" fill="black"/><rect x="45.945945945946" y="64.864864864865" width="2.7027027027027" height="5.4054054054054" fill="black"/><rect x="45.945945945946" y="72.972972972973" width="2.7027027027027" height="13.513513513514" fill="black"/><rect x="48.648648648649" y="16.216216216216" width="2.7027027027027" height="18.918918918919" fill="black"/><rect x="48.648648648649" y="45.945945945946" width="2.7027027027027" height="5.4054054054054" fill="black"/><rect x="48.648648648649" y="62.162162162162" width="2.7027027027027" height="10.810810810811" fill="black"/><rect x="48.648648648649" y="81.081081081081" width="2.7027027027027" height="8.1081081081081" fill="black"/><rect x="51.351351351351" y="10.810810810811" width="2.7027027027027" height="16.216216216216" fill="black"/><rect x="51.351351351351" y="29.72972972973" width="2.7027027027027" height="5.4054054054054" fill="black"/><rect x="51.351351351351" y="62.162162162162" width="2.7027027027027" height="2.7027027027027" fill="black"/><rect x="54.054054054054" y="13.513513513514" width="2.7027027027027" height="2.7027027027027" fill="black"/><rect x="54.054054054054" y="21.621621621622" width="2.7027027027027" height="16.216216216216" fill="black"/><rect x="54.054054054054" y="54.054054054054" width="2.7027027027027" height="5.4054054054054" fill="black"/><rect x="54.054054054054" y="64.864864864865" width="2.7027027027027" height="8.1081081081081" fill="black"/><rect x="56.756756756757" y="13.513513513514" width="2.7027027027027" height="5.4054054054054" fill="black"/><rect x="56.756756756757" y="21.621621621622" width="2.7027027027027" height="5.4054054054054" fill="black"/><rect x="56.756756756757" y="29.72972972973" width="2.7027027027027" height="2.7027027027027" fill="black"/><rect x="56.756756756757" y="51.351351351351" width="2.7027027027027" height="5.4054054054054" fill="black"/><rect x="56.756756756757" y="59.459459459459" width="2.7027027027027" height="5.4054054054054" fill="black"/><rect x="56.756756756757" y="75.675675675676" width="2.7027027027027" height="5.4054054054054" fill="black"/><rect x="56.756756756757" y="83.783783783784" width="2.7027027027027" height="5.4054054054054" fill="black"/><rect x="59.459459459459" y="10.810810810811" width="2.7027027027027" height="5.4054054054054" fill="black"/><rect x="59.459459459459" y="18.918918918919" width="2.7027027027027" height="10.810810810811" fill="black"/><rect x="59.459459459459" y="62.162162162162" width="2.7027027027027" height="2.7027027027027" fill="black"/><rect x="62.162162162162" y="29.72972972973" width="2.7027027027027" height="5.4054054054054" fill="black"/><rect x="62.162162162162" y="43.243243243243" width="2.7027027027027" height="5.4054054054054" fill="black"/><rect x="62.162162162162" y="54.054054054054" width="2.7027027027027" height="2.7027027027027" fill="black"/><rect x="62.162162162162" y="62.162162162162" width="2.7027027027027" height="2.7027027027027" fill="black"/><rect x="62.162162162162" y="78.378378378378" width="2.7027027027027" height="10.810810810811" fill="black"/><rect x="64.864864864865" y="16.216216216216" width="2.7027027027027" height="5.4054054054054" fill="black"/><rect x="64.864864864865" y="24.324324324324" width="2.7027027027027" height="8.1081081081081" fill="black"/><rect x="64.864864864865" y="43.243243243243" width="2.7027027027027" height="5.4054054054054" fill="black"/><rect x="64.864864864865" y="59.459459459459" width="2.7027027027027" height="29.72972972973" fill="black"/><rect x="67.567567567568" y="40.540540540541" width="2.7027027027027" height="10.810810810811" fill="black"/><rect x="67.567567567568" y="54.054054054054" width="2.7027027027027" height="2.7027027027027" fill="black"/><rect x="70.27027027027" y="10.810810810811" width="2.7027027027027" height="18.918918918919" fill="black"/><rect x="70.27027027027" y="32.432432432432" width="2.7027027027027" height="8.1081081081081" fill="black"/><rect x="70.27027027027" y="56.756756756757" width="2.7027027027027" height="5.4054054054054" fill="black"/><rect x="70.27027027027" y="75.675675675676" width="2.7027027027027" height="5.4054054054054" fill="black"/><rect x="72.972972972973" y="27.027027027027" width="2.7027027027027" height="2.7027027027027" fill="black"/><rect x="72.972972972973" y="56.756756756757" width="2.7027027027027" height="10.810810810811" fill="black"/><rect x="72.972972972973" y="75.675675675676" width="2.7027027027027" height="5.4054054054054" fill="black"/><rect x="75.675675675676" y="16.216216216216" width="2.7027027027027" height="8.1081081081081" fill="black"/><rect x="75.675675675676" y="27.027027027027" width="2.7027027027027" height="2.7027027027027" fill="black"/><rect x="75.675675675676" y="37.837837837838" width="2.7027027027027" height="5.4054054054054" fill="black"/><rect x="75.675675675676" y="64.864864864865" width="2.7027027027027" height="21.621621621622" fill="black"/><rect x="78.378378378378" y="16.216216216216" width="2.7027027027027" height="8.1081081081081" fill="black"/><rect x="78.378378378378" y="27.027027027027" width="2.7027027027027" height="2.7027027027027" fill="black"/><rect x="78.378378378378" y="35.135135135135" width="2.7027027027027" height="10.810810810811" fill="black"/><rect x="78.378378378378" y="51.351351351351" width="2.7027027027027" height="5.4054054054054" fill="black"/><rect x="81.081081081081" y="16.216216216216" width="2.7027027027027" height="8.1081081081081" fill="black"/><rect x="81.081081081081" y="27.027027027027" width="2.7027027027027" height="2.7027027027027" fill="black"/><rect x="81.081081081081" y="37.837837837838" width="2.7027027027027" height="5.4054054054054" fill="black"/><rect x="81.081081081081" y="45.945945945946" width="2.7027027027027" height="5.4054054054054" fill="black"/><rect x="81.081081081081" y="64.864864864865" width="2.7027027027027" height="5.4054054054054" fill="black"/><rect x="83.783783783784" y="27.027027027027" width="2.7027027027027" height="2.7027027027027" fill="black"/><rect x="83.783783783784" y="37.837837837838" width="2.7027027027027" height="8.1081081081081" fill="black"/><rect x="83.783783783784" y="48.648648648649" width="2.7027027027027" height="8.1081081081081" fill="black"/><rect x="83.783783783784" y="59.459459459459" width="2.7027027027027" height="5.4054054054054" fill="black"/><rect x="83.783783783784" y="67.567567567568" width="2.7027027027027" height="5.4054054054054" fill="black"/><rect x="83.783783783784" y="75.675675675676" width="2.7027027027027" height="5.4054054054054" fill="black"/><rect x="83.783783783784" y="83.783783783784" width="2.7027027027027" height="5.4054054054054" fill="black"/><rect x="86.486486486486" y="10.810810810811" width="2.7027027027027" height="18.918918918919" fill="black"/><rect x="86.486486486486" y="56.756756756757" width="2.7027027027027" height="8.1081081081081" fill="black"/></svg>