<svg version="1.1" xmlns="http://www.w3.org/2000/svg" width="100" height="100"><rect x="0" y="0" width="100" height="100" fill="white"/><rect x="12.121212121212" y="12.121212121212" width="21.212121212121" height="3.030303030303" fill="black"/><rect x="36.363636363636" y="12.121212121212" width="6.0606060606061" height="3.030303030303" fill="black"/><rect x="48.484848484848" y="12.121212121212" width="6.0606060606061" height="3.030303030303" fill="black"/><rect x="57.575757575758" y="12.121212121212" width="6.0606060606061" height="3.030303030303" fill="black"/><rect x="66.666666666667" y="12.121212121212" width="21.212121212121" height="3.030303030303" fill="black"/><rect x="12.121212121212" y="15.151515151515" width="3.030303030303" height="3.030303030303" fill="black"/><rect x="30.30303030303" y="15.151515151515" width="3.030303030303" height="3.030303030303" fill="black"/><rect x="36.363636363636" y="15.151515151515" width="9.0909090909091" height="3.030303030303" fill="black"/><rect x="51.515151515152" y="15.151515151515" width="3.030303030303" height="3.030303030303" fill="black"/><rect x="66.666666666667" y="15.151515151515" width="3.030303030303" height="3.030303030303" fill="black"/><rect x="84.848484848485" y="15.151515151515" width="3.030303030303" height="3.030303030303" fill="black"/><rect x="12.121212121212" y="18.181818181818" width="3.030303030303" height="3.030303030303" fill="black"/><rect x="18.181818181818" y="18.181818181818" width="9.0909090909091" height="3.030303030303" fill="black"/><rect x="30.30303030303" y="18.181818181818" width="3.030303030303" height="3.030303030303" fill="black"/><rect x="36.363636363636" y="18.181818181818" width="3.030303030303" height="3.030303030303" fill="black"/><rect x="42.424242424242" y="18.181818181818" width="3.030303030303" height="3.030303030303" fill="black"/><rect x="60.606060606061" y="18.181818181818" width="3.030303030303" height="3.030303030303" fill="black"/><rect x="66.666666666667" y="18.181818181818" width="3.030303030303" height="3.030303030303" fill="black"/><rect x="72.727272727273" y="18.181818181818" width="9.0909090909091" height="3.030303030303" fill="black"/><rect x="84.848484848485" y="18.181818181818" width="3.030303030303" height="3.030303030303" fill="black"/><rect x="12.121212121212" y="21.212121212121" width="3.030303030303" height="3.030303030303" fill="black"/><rect x="18.181818181818" y="21.212121212121" width="9.0909090909091" height="3.030303030303" fill="black"/><rect x="30.30303030303" y="21.212121212121" width="3.030303030303" height="3.030303030303" fill="black"/><rect x="36.363636363636" y="21.212121212121" width="6.0606060606061" height="3.030303030303" fill="black"/><rect x="45.454545454545" y="21.212121212121" width="15.151515151515" height="3.030303030303" fill="black"/><rect x="66.666666666667" y="21.212121212121" width="3.030303030303" height="3.030303030303" fill="black"/><rect x="72.727272727273" y="21.212121212121" width="9.0909090909091" height="3.030303030303" fill="black"/><rect x="84.848484848485" y="21.212121212121" width="3.030303030303" height="3.030303030303" fill="black"/><rect x="12.121212121212" y="24.242424242424" width="3.030303030303" height="3.030303030303" fill="black"/><rect x="18.181818181818" y="24.242424242424" width="9.0909090909091" height="3.030303030303" fill="black"/><rect x="30.30303030303" y="24.242424242424" width="3.030303030303" height="3.030303030303" fill="black"/><rect x="45.454545454545" y="24.242424242424" width="6.0606060606061" height="3.030303030303" fill="black"/><rect x="54.545454545455" y="24.242424242424" width="9.0909090909091" height="3.030303030303" fill="black"/><rect x="66.666666666667" y="24.242424242424" width="3.030303030303" height="3.030303030303" fill="black"/><rect x="72.727272727273" y="24.242424242424" width="9.0909090909091" height="3.030303030303" fill="black"/><rect x="84.848484848485" y="24.242424242424" width="3.030303030303" height="3.030303030303" fill="black"/><rect x="12.121212121212" y="27.272727272727" width="3.030303030303" height="3.030303030303" fill="black"/><rect x="30.30303030303" y="27.272727272727" width="3.030303030303" height="3.030303030303" fill="black"/><rect x="36.363636363636" y="27.272727272727" width="3.030303030303" height="3.030303030303" fill="black"/><rect x="51.515151515152" y="27.272727272727" width="6.0606060606061" height="3.030303030303" fill="black"/><rect x="60.606060606061" y="27.272727272727" width="3.030303030303" height="3.030303030303" fill="black"/><rect x="66.666666666667" y="27.272727272727" width="3.030303030303" height="3.030303030303" fill="black"/><rect x="84.848484848485" y="27.272727272727" width="3.030303030303" height="3.030303030303" fill="black"/><rect x="12.121212121212" y="30.30303030303" width="21.212121212121" height="3.030303030303" fill="black"/><rect x="36.363636363636" y="30.30303030303" width="3.030303030303" height="3.030303030303" fill="black"/><rect x="42.424242424242" y="30.30303030303" width="3.030303030303" height="3.030303030303" fill="black"/><rect x="48.484848484848" y="30.30303030303" width="3.030303030303" height="3.030303030303" fill="black"/><rect x="54.545454545455" y="30.30303030303" width="3.030303030303" height="3.030303030303" fill="black"/><rect x="60.606060606061" y="30.30303030303" width="3.030303030303" height="3.030303030303" fill="black"/><rect x="66.666666666667" y="30.30303030303" width="21.212121212121" height="3.030303030303" fill="black"/><rect x="39.393939393939" y="33.333333333333" width="3.030303030303" height="3.030303030303" fill="black"/><rect x="45.454545454545" y="33.333333333333" width="3.030303030303" height="3.030303030303" fill="black"/><rect x="54.545454545455" y="33.333333333333" width="6.0606060606061" height="3.030303030303" fill="black"/><rect x="12.121212121212" y="36.363636363636" width="6.0606060606061" height="3.030303030303" fill="black"/><rect x="24.242424242424" y="36.363636363636" width="9.0909090909091" height="3.030303030303" fill="black"/><rect x="69.69696969697" y="36.363636363636" width="3.030303030303" height="3.030303030303" fill="black"/><rect x="75.757575757576" y="36.363636363636" width="12.121212121212" height="3.030303030303" fill="black"/><rect x="18.181818181818" y="39.393939393939" width="12.121212121212" height="3.030303030303" fill="black"/><rect x="33.333333333333" y="39.393939393939" width="30.30303030303" height="3.030303030303" fill="black"/><rect x="69.69696969697" y="39.393939393939" width="6.060606060606" height="3.030303030303" fill="black"/><rect x="81.818181818182" y="39.393939393939" width="3.030303030303" height="3.030303030303" fill="black"/><rect x="15.151515151515" y="42.424242424242" width="18.181818181818" height="3.030303030303" fill="black"/><rect x="36.363636363636" y="42.424242424242" width="3.030303030303" height="3.030303030303" fill="black"/><rect x="45.454545454545" y="42.424242424242" width="15.151515151515" height="3.030303030303" fill="black"/><rect x="66.666666666667" y="42.424242424242" width="3.030303030303" height="3.030303030303" fill="black"/><rect x="75.757575757576" y="42.424242424242" width="3.030303030303" height="3.030303030303" fill="black"/><rect x="21.212121212121" y="45.454545454545" width="9.0909090909091" height="3.030303030303" fill="black"/><rect x="33.333333333333" y="45.454545454545" width="3.030303030303" height="3.030303030303" fill="black"/><rect x="42.424242424242" y="45.454545454545" width="3.030303030303" height="3.030303030303" fill="black"/><rect x="48.484848484848" y="45.454545454545" width="3.030303030303" height="3.030303030303" fill="black"/><rect x="60.606060606061" y="45.454545454545" width="3.030303030303" height="3.030303030303" fill="black"/><rect x="66.666666666667" y="45.454545454545" width="6.060606060606" height="3.030303030303" fill="black"/><rect x="78.787878787879" y="45.454545454545" width="9.0909090909091" height="3.030303030303" fill="black"/><rect x="12.121212121212" y="48.484848484848" width="12.121212121212" height="3.030303030303" fill="black"/><rect x="27.272727272727" y="48.484848484848" width="6.0606060606061" height="3.030303030303" fill="black"/><rect x="36.363636363636" y="48.484848484848" width="3.030303030303" height="3.030303030303" fill="black"/><rect x="42.424242424242" y="48.484848484848" width="9.0909090909091" height="3.030303030303" fill="black"/><rect x="63.636363636364" y="48.484848484848" width="9.0909090909091" height="3.030303030303" fill="black"/><rect x="78.787878787879" y="48.484848484848" width="9.0909090909091" height="3.030303030303" fill="black"/><rect x="18.181818181818" y="51.515151515152" width="3.030303030303" height="3.030303030303" fill="black"/><rect x="24.242424242424" y="51.515151515152" width="3.030303030303" height="3.030303030303" fill="black"/><rect x="36.363636363636" y="51.515151515152" width="3.030303030303" height="3.030303030303" fill="black"/><rect x="45.454545454545" y="51.515151515152" width="6.0606060606061" height="3.030303030303" fill="black"/><rect x="54.545454545455" y="51.515151515152" width="12.121212121212" height="3.030303030303" fill="black"/><rect x="72.727272727273" y="51.515151515152" width="9.0909090909091" height="3.030303030303" fill="black"/><rect x="12.121212121212" y="54.545454545455" width="6.0606060606061" height="3.030303030303" fill="black"/><rect x="21.212121212121" y="54.545454545455" width="6.0606060606061" height="3.030303030303" fill="black"/><rect x="30.30303030303" y="54.545454545455" width="6.0606060606061" height="3.030303030303" fill="black"/><rect x="45.454545454545" y="54.545454545455" width="6.0606060606061" height="3.030303030303" fill="black"/><rect x="57.575757575758" y="54.545454545455" width="3.030303030303" height="3.030303030303" fill="black"/><rect x="72.727272727273" y="54.545454545455" width="3.030303030303" height="3.030303030303" fill="black"/><rect x="12.121212121212" y="57.575757575758" width="9.0909090909091" height="3.030303030303" fill="black"/><rect x="33.333333333333" y="57.575757575758" width="9.0909090909091" height="3.030303030303" fill="black"/><rect x="54.545454545455" y="57.575757575758" width="3.030303030303" height="3.030303030303" fill="black"/><rect x="66.666666666667" y="57.575757575758" width="9.0909090909091" height="3.030303030303" fill="black"/><rect x="78.787878787879" y="57.575757575758" width="3.030303030303" height="3.030303030303" fill="black"/><rect x="84.848484848485" y="57.575757575758" width="3.030303030303" height="3.030303030303" fill="black"/><rect x="18.181818181818" y="60.606060606061" width="15.151515151515" height="3.030303030303" fill="black"/><rect x="36.363636363636" y="60.606060606061" width="3.030303030303" height="3.030303030303" fill="black"/><rect x="42.424242424242" y="60.606060606061" width="3.030303030303" height="3.030303030303" fill="black"/><rect x="57.575757575758" y="60.606060606061" width="18.181818181818" height="3.030303030303" fill="black"/><rect x="78.787878787879" y="60.606060606061" width="6.0606060606061" height="3.030303030303" fill="black"/><rect x="36.363636363636" y="63.636363636364" width="3.030303030303" height="3.030303030303" fill="black"/><rect x="45.454545454545" y="63.636363636364" width="3.030303030303" height="3.030303030303" fill="black"/><rect x="51.515151515152" y="63.636363636364" width="6.0606060606061" height="3.030303030303" fill="black"/><rect x="60.606060606061" y="63.636363636364" width="3.030303030303" height="3.030303030303" fill="black"/><rect x="72.727272727273" y="63.636363636364" width="9.0909090909091" height="3.030303030303" fill="black"/><rect x="12.121212121212" y="66.666666666667" width="21.212121212121" height="3.030303030303" fill="black"/><rect x="45.454545454545" y="66.666666666667" width="9.0909090909091" height="3.030303030303" fill="black"/><rect x="60.606060606061" y="66.666666666667" width="3.030303030303" height="3.030303030303" fill="black"/><rect x="66.666666666667" y="66.666666666667" width="3.030303030303" height="3.030303030303" fill="black"/><rect x="72.727272727273" y="66.666666666667" width="6.0606060606061" height="3.030303030303" fill="black"/><rect x="81.818181818182" y="66.666666666667" width="3.030303030303" height="3.030303030303" fill="black"/><rect x="12.121212121212" y="69.69696969697" width="3.030303030303" height="3.030303030303" fill="black"/><rect x="30.30303030303" y="69.69696969697" width="3.030303030303" height="3.030303030303" fill="black"/><rect x="36.363636363636" y="69.69696969697" width="6.0606060606061" height="3.030303030303" fill="black"/><rect x="45.454545454545" y="69.69696969697" width="6.0606060606061" height="3.030303030303" fill="black"/><rect x="54.545454545455" y="69.69696969697" width="9.0909090909091" height="3.030303030303" fill="black"/><rect x="72.727272727273" y="69.69696969697" width="3.030303030303" height="3.030303030303" fill="black"/><rect x="78.787878787879" y="69.69696969697" width="3.030303030303" height="3.030303030303" fill="black"/><rect x="12.121212121212" y="72.727272727273" width="3.030303030303" height="3.030303030303" fill="black"/><rect x="18.181818181818" y="72.727272727273" width="9.0909090909091" height="3.030303030303" fill="black"/><rect x="30.30303030303" y="72.727272727273" width="3.030303030303" height="3.030303030303" fill="black"/><rect x="36.363636363636" y="72.727272727273" width="6.0606060606061" height="3.030303030303" fill="black"/><rect x="48.484848484848" y="72.727272727273" width="3.030303030303" height="3.030303030303" fill="black"/><rect x="60.606060606061" y="72.727272727273" width="24.242424242424" height="3.030303030303" fill="black"/><rect x="12.121212121212" y="75.757575757576" width="3.030303030303" height="3.030303030303" fill="black"/><rect x="18.181818181818" y="75.757575757576" width="9.0909090909091" height="3.030303030303" fill="black"/><rect x="30.30303030303" y="75.757575757576" width="3.030303030303" height="3.030303030303" fill="black"/><rect x="39.393939393939" y="75.757575757576" width="3.030303030303" height="3.030303030303" fill="black"/><rect x="45.454545454545" y="75.757575757576" width="3.030303030303" height="3.030303030303" fill="black"/><rect x="51.515151515152" y="75.757575757576" width="6.0606060606061" height="3.030303030303" fill="black"/><rect x="60.606060606061" y="75.757575757576" width="12.121212121212" height="3.030303030303" fill="black"/><rect x="75.757575757576" y="75.757575757576" width="3.030303030303" height="3.030303030303" fill="black"/><rect x="81.818181818182" y="75.757575757576" width="6.0606060606061" height="3.030303030303" fill="black"/><rect x="12.121212121212" y="78.787878787879" width="3.030303030303" height="3.030303030303" fill="black"/><rect x="18.181818181818" y="78.787878787879" width="9.0909090909091" height="3.030303030303" fill="black"/><rect x="30.30303030303" y="78.787878787879" width="3.030303030303" height="3.030303030303" fill="black"/><rect x="39.393939393939" y="78.787878787879" width="9.0909090909091" height="3.030303030303" fill="black"/><rect x="57.575757575758" y="78.787878787879" width="15.151515151515" height="3.030303030303" fill="black"/><rect x="75.757575757576" y="78.787878787879" width="9.0909090909091" height="3.030303030303" fill="black"/><rect x="12.121212121212" y="81.818181818182" width="3.030303030303" height="3.030303030303" fill="black"/><rect x="30.30303030303" y="81.818181818182" width="3.030303030303" height="3.030303030303" fill="black"/><rect x="36.363636363636" y="81.818181818182" width="3.030303030303" height="3.030303030303" fill="black"/><rect x="42.424242424242" y="81.818181818182" width="9.0909090909091" height="3.030303030303" fill="black"/><rect x="54.545454545455" y="81.818181818182" width="6.0606060606061" height="3.030303030303" fill="black"/><rect x="69.69696969697" y="81.818181818182" width="3.030303030303" height="3.030303030303" fill="black"/><rect x="78.787878787879" y="81.818181818182" width="6.0606060606061" height="3.030303030303" fill="black"/><rect x="12.121212121212" y="84.848484848485" width="21.212121212121" height="3.030303030303" fill="black"/><rect x="36.363636363636" y="84.848484848485" width="3.030303030303" height="3.030303030303" fill="black"/><rect x="42.424242424242" y="84.848484848485" width="3.030303030303" height="3.030303030303" fill="black"/><rect x="57.575757575758" y="84.848484848485" width="3.030303030303" height="3.030303030303" fill="black"/><rect x="63.636363636364" y="84.848484848485" width="6.0606060606061" height="3.030303030303" fill="black"/><rect x="72.727272727273" y="84.848484848485" width="3.030303030303" height="3.030303030303" fill="black"/><rect x="78.787878787879" y="84.848484848485" width="9.0909090909091" height="3.030303030303" fill="black"/><rect x="12.121212121212" y="12.121212121212" width="3.030303030303" height="21.212121212121" fill="black"/><rect x="12.121212121212" y="54.545454545455" width="3.030303030303" height="6.0606060606061" fill="black"/><rect x="12.121212121212" y="66.666666666667" width="3.030303030303" height="21.212121212121" fill="black"/><rect x="15.151515151515" y="54.545454545455" width="3.030303030303" height="6.0606060606061" fill="black"/><rect x="18.181818181818" y="18.181818181818" width="3.030303030303" height="9.0909090909091" fill="black"/><rect x="18.181818181818" y="39.393939393939" width="3.030303030303" height="6.0606060606061" fill="black"/><rect x="18.181818181818" y="48.484848484848" width="3.030303030303" height="6.0606060606061" fill="black"/><rect x="18.181818181818" y="57.575757575758" width="3.030303030303" height="6.0606060606061" fill="black"/><rect x="18.181818181818" y="72.727272727273" width="3.030303030303" height="9.0909090909091" fill="black"/><rect x="21.212121212121" y="18.181818181818" width="3.030303030303" height="9.0909090909091" fill="black"/><rect x="21.212121212121" y="39.393939393939" width="3.030303030303" height="12.121212121212" fill="black"/><rect x="21.212121212121" y="72.727272727273" width="3.030303030303" height="9.0909090909091" fill="black"/><rect x="24.242424242424" y="18.181818181818" width="3.030303030303" height="9.0909090909091" fill="black"/><rect x="24.242424242424" y="36.363636363636" width="3.030303030303" height="12.121212121212" fill="black"/><rect x="24.242424242424" y="51.515151515152" width="3.030303030303" height="6.0606060606061" fill="black"/><rect x="24.242424242424" y="72.727272727273" width="3.030303030303" height="9.0909090909091" fill="black"/><rect x="27.272727272727" y="36.363636363636" width="3.030303030303" height="15.151515151515" fill="black"/><rect x="30.30303030303" y="12.121212121212" width="3.030303030303" height="21.212121212121" fill="black"/><rect x="30.30303030303" y="66.666666666667" width="3.030303030303" height="21.212121212121" fill="black"/><rect x="33.333333333333" y="54.545454545455" width="3.030303030303" height="6.0606060606061" fill="black"/><rect x="36.363636363636" y="12.121212121212" width="3.030303030303" height="12.121212121212" fill="black"/><rect x="36.363636363636" y="27.272727272727" width="3.030303030303" height="6.0606060606061" fill="black"/><rect x="36.363636363636" y="39.393939393939" width="3.030303030303" height="6.0606060606061" fill="black"/><rect x="36.363636363636" y="48.484848484848" width="3.030303030303" height="6.0606060606061" fill="black"/><rect x="36.363636363636" y="57.575757575758" width="3.030303030303" height="9.0909090909091" fill="black"/><rect x="36.363636363636" y="69.69696969697" width="3.030303030303" height="6.060606060606" fill="black"/><rect x="36.363636363636" y="81.818181818182" width="3.030303030303" height="6.0606060606061" fill="black"/><rect x="39.393939393939" y="12.121212121212" width="3.030303030303" height="6.0606060606061" fill="black"/><rect x="39.393939393939" y="69.69696969697" width="3.030303030303" height="12.121212121212" fill="black"/><rect x="42.424242424242" y="15.151515151515" width="3.030303030303" height="6.0606060606061" fill="black"/><rect x="42.424242424242" y="45.454545454545" width="3.030303030303" height="6.0606060606061" fill="black"/><rect x="42.424242424242" y="78.787878787879" width="3.030303030303" height="9.0909090909091" fill="black"/><rect x="45.454545454545" y="21.212121212121" width="3.030303030303" height="6.0606060606061" fill="black"/><rect x="45.454545454545" y="39.393939393939" width="3.030303030303" height="6.0606060606061" fill="black"/><rect x="45.454545454545" y="48.484848484848" width="3.030303030303" height="9.0909090909091" fill="black"/><rect x="45.454545454545" y="63.636363636364" width="3.030303030303" height="9.0909090909091" fill="black"/><rect x="45.454545454545" y="75.757575757576" width="3.030303030303" height="9.0909090909091" fill="black"/><rect x="48.484848484848" y="21.212121212121" width="3.030303030303" height="6.0606060606061" fill="black"/><rect x="48.484848484848" y="39.393939393939" width="3.030303030303" height="18.181818181818" fill="black"/><rect x="48.484848484848" y="66.666666666667" width="3.030303030303" height="9.0909090909091" fill="black"/><rect x="51.515151515152" y="12.121212121212" width="3.030303030303" height="6.0606060606061" fill="black"/><rect x="51.515151515152" y="39.393939393939" width="3.030303030303" height="6.0606060606061" fill="black"/><rect x="51.515151515152" y="63.636363636364" width="3.030303030303" height="6.0606060606061" fill="black"/><rect x="54.545454545455" y="21.212121212121" width="3.030303030303" height="15.151515151515" fill="black"/><rect x="54.545454545455" y="39.393939393939" width="3.030303030303" height="6.0606060606061" fill="black"/><rect x="54.545454545455" y="63.636363636364" width="3.030303030303" height="3.030303030303" fill="black"/><rect x="57.575757575758" y="21.212121212121" width="3.030303030303" height="6.0606060606061" fill="black"/><rect x="57.575757575758" y="39.393939393939" width="3.030303030303" height="6.0606060606061" fill="black"/><rect x="57.575757575758" y="51.515151515152" width="3.030303030303" height="6.0606060606061" fill="black"/><rect x="57.575757575758" y="78.787878787879" width="3.030303030303" height="9.0909090909091" fill="black"/><rect x="60.606060606061" y="24.242424242424" width="3.030303030303" height="9.0909090909091" fill="black"/><rect x="60.606060606061" y="60.606060606061" width="3.030303030303" height="21.212121212121" fill="black"/><rect x="63.636363636364" y="48.484848484848" width="3.030303030303" height="6.0606060606061" fill="black"/><rect x="63.636363636364" y="72.727272727273" width="3.030303030303" height="9.0909090909091" fill="black"/><rect x="66.666666666667" y="12.121212121212" width="3.030303030303" height="21.212121212121" fill="black"/><rect x="66.666666666667" y="42.424242424242" width="3.030303030303" height="9.0909090909091" fill="black"/><rect x="66.666666666667" y="57.575757575758" width="3.030303030303" height="6.0606060606061" fill="black"/><rect x="66.666666666667" y="72.727272727273" width="3.030303030303" height="9.0909090909091" fill="black"/><rect x="69.69696969697" y="36.363636363636" width="3.030303030303" height="6.0606060606061" fill="black"/><rect x="69.69696969697" y="45.454545454545" width="3.030303030303" height="6.0606060606061" fill="black"/><rect x="69.69696969697" y="57.575757575758" width="3.030303030303" height="6.0606060606061" fill="black"/><rect x="69.69696969697" y="72.727272727273" width="3.030303030303" height="12.121212121212" fill="black"/><rect x="72.727272727273" y="18.181818181818" width="3.030303030303" height="9.0909090909091" fill="black"/><rect x="72.727272727273" y="51.515151515152" width="3.030303030303" height="24.242424242424" fill="black"/><rect x="75.757575757576" y="18.181818181818" width="3.030303030303" height="9.0909090909091" fill="black"/><rect x="75.757575757576" y="63.636363636364" width="3.030303030303" height="6.0606060606061" fill="black"/><rect x="75.757575757576" y="72.727272727273" width="3.030303030303" height="9.0909090909091" fill="black"/><rect x="78.787878787879" y="18.181818181818" width="3.030303030303" height="9.0909090909091" fill="black"/><rect x="78.787878787879" y="45.454545454545" width="3.030303030303" height="9.0909090909091" fill="black"/><rect x="78.787878787879" y="57.575757575758" width="3.030303030303" height="9.0909090909091" fill="black"/><rect x="78.787878787879" y="69.69696969697" width="3.030303030303" height="6.060606060606" fill="black"/><rect x="78.787878787879" y="78.787878787879" width="3.030303030303" height="9.0909090909091" fill="black"/><rect x="81.818181818182" y="36.363636363636" width="3.030303030303" height="6.0606060606061" fill="black"/><rect x="81.818181818182" y="45.454545454545" width="3.030303030303" height="6.0606060606061" fill="black"/><rect x="81.818181818182" y="72.727272727273" width="3.030303030303" height="15.151515151515" fill="black"/><rect x="84.848484848485" y="12.121212121212" width="3.030303030303" height="21.212121212121" fill="black"/><rect x="84.848484848485" y="45.454545454545" width="3.030303030303" height="6.0606060606061" fill="black"/></svg>